<svg id="briefcase" xmlns="http://www.w3.org/2000/svg" width="79.316" height="69.083" viewBox="0 0 79.316 69.083">
  <path id="Path_41" data-name="Path 41" d="M79.038,13.955H54.731V8.838A3.849,3.849,0,0,0,50.893,5H30.424a3.849,3.849,0,0,0-3.838,3.838v5.117H2.279A1.279,1.279,0,0,0,1,15.234V47.217A1.279,1.279,0,0,0,2.279,48.5H3.559V70.244A3.849,3.849,0,0,0,7.4,74.082H73.92a3.849,3.849,0,0,0,3.838-3.838V48.5h1.279a1.279,1.279,0,0,0,1.279-1.279V15.234A1.279,1.279,0,0,0,79.038,13.955ZM29.145,8.838a1.279,1.279,0,0,1,1.279-1.279H50.893a1.279,1.279,0,0,1,1.279,1.279v5.117H29.145ZM75.2,70.244a1.279,1.279,0,0,1-1.279,1.279H7.4a1.279,1.279,0,0,1-1.279-1.279V48.5h8.955v5.117a1.279,1.279,0,0,0,1.279,1.279h7.676a1.279,1.279,0,0,0,1.279-1.279V48.5h30.7v5.117a1.279,1.279,0,0,0,1.279,1.279h7.676a1.279,1.279,0,0,0,1.279-1.279V48.5H75.2ZM17.631,42.1h5.117V52.334H17.631Zm40.938,0h5.117V52.334H58.569Zm19.19,3.838H66.244V40.821a1.279,1.279,0,0,0-1.279-1.279H57.289a1.279,1.279,0,0,0-1.279,1.279v5.117h-30.7V40.821a1.279,1.279,0,0,0-1.279-1.279H16.352a1.279,1.279,0,0,0-1.279,1.279v5.117H3.559V16.514h74.2Z" transform="translate(-1 -5)" fill="#79e228"/>
  <path id="Path_42" data-name="Path 42" d="M41.879,21.248H36.787l-1.574-4.836a1.279,1.279,0,0,0-2.431,0l-1.574,4.836H26.118a1.279,1.279,0,0,0-.742,2.316l4.107,2.994-1.574,4.836a1.279,1.279,0,0,0,.473,1.42,1.247,1.247,0,0,0,1.5,0L34,29.832l4.119,2.981a1.223,1.223,0,0,0,1.5,0,1.279,1.279,0,0,0,.473-1.42l-1.574-4.836,4.107-2.994a1.279,1.279,0,0,0-.742-2.316Zm-6.089,5.207.64,1.983-1.676-1.228a1.293,1.293,0,0,0-1.51,0l-1.676,1.228.64-1.983a1.269,1.269,0,0,0-.461-1.42l-1.689-1.228h2.085a1.291,1.291,0,0,0,1.215-.883L34,20.941l.64,1.983a1.291,1.291,0,0,0,1.215.883h2.085L36.25,25.035A1.269,1.269,0,0,0,35.789,26.455Z" transform="translate(5.66 -2.058)" fill="#79e228"/>
  <path id="Path_43" data-name="Path 43" d="M25.879,21.248H20.787l-1.574-4.836a1.279,1.279,0,0,0-2.431,0l-1.574,4.836H10.118a1.279,1.279,0,0,0-.742,2.316l4.107,2.994-1.574,4.836a1.279,1.279,0,0,0,.473,1.42,1.247,1.247,0,0,0,1.5,0L18,29.832l4.119,2.981a1.223,1.223,0,0,0,1.5,0,1.279,1.279,0,0,0,.473-1.42l-1.574-4.836,4.107-2.994a1.279,1.279,0,0,0-.742-2.316Zm-6.089,5.207.64,1.983-1.676-1.228a1.293,1.293,0,0,0-1.51,0l-1.676,1.228.64-1.983a1.269,1.269,0,0,0-.461-1.42l-1.689-1.228h2.085a1.291,1.291,0,0,0,1.215-.883L18,20.941l.64,1.983a1.291,1.291,0,0,0,1.215.883h2.085L20.25,25.035a1.269,1.269,0,0,0-.461,1.42Z" transform="translate(1.192 -2.058)" fill="#79e228"/>
  <path id="Path_44" data-name="Path 44" d="M40.9,22.131a1.3,1.3,0,0,0,.473,1.433l4.107,2.994-1.574,4.836a1.279,1.279,0,0,0,.473,1.42,1.247,1.247,0,0,0,1.5,0L50,29.832l4.119,2.981a1.223,1.223,0,0,0,1.5,0,1.279,1.279,0,0,0,.473-1.42l-1.574-4.836,4.107-2.994a1.279,1.279,0,0,0-.742-2.316H52.787l-1.574-4.836a1.279,1.279,0,0,0-2.431,0L47.21,21.248H42.118a1.291,1.291,0,0,0-1.215.883Zm7.241,1.676a1.291,1.291,0,0,0,1.215-.883L50,20.941l.64,1.983a1.291,1.291,0,0,0,1.215.883h2.085L52.25,25.035a1.269,1.269,0,0,0-.461,1.42l.64,1.983-1.676-1.228a1.293,1.293,0,0,0-1.51,0l-1.676,1.228.64-1.983a1.269,1.269,0,0,0-.461-1.42l-1.689-1.228Z" transform="translate(10.129 -2.058)" fill="#79e228"/>
  <path id="Path_45" data-name="Path 45" d="M56.469,53H37.279a1.279,1.279,0,0,0,0,2.559h19.19a1.279,1.279,0,0,0,0-2.559Z" transform="translate(8.776 8.407)" fill="#79e228"/>
  <path id="Path_46" data-name="Path 46" d="M55.279,55.559h1.279a1.279,1.279,0,0,0,0-2.559H55.279a1.279,1.279,0,0,0,0,2.559Z" transform="translate(13.803 8.407)" fill="#79e228"/>
</svg>
