<svg xmlns="http://www.w3.org/2000/svg" xmlns:xlink="http://www.w3.org/1999/xlink" width="73.045" height="79.647" viewBox="0 0 73.045 79.647">
  <defs>
    <linearGradient id="linear-gradient" x1="-0.462" y1="4.173" x2="-0.423" y2="4.117" gradientUnits="objectBoundingBox">
      <stop offset="0" stop-color="#fff" stop-opacity="0.6"/>
      <stop offset="1" stop-color="#fff" stop-opacity="0.2"/>
    </linearGradient>
  </defs>
  <g id="car_1_" data-name="car(1)" transform="translate(0 0)">
    <path id="Path_168" data-name="Path 168" d="M90.691,47.185l-2.744-6.694a16.876,16.876,0,0,0,1.45-7.305,17.558,17.558,0,0,0-1.8-8.141,14.325,14.325,0,0,1-1.485-6.194L92.6,11.615a7.135,7.135,0,0,0,1.774-4.771C94.378,3.071,91.563,0,88.107,0a5.246,5.246,0,0,0-3.69,1.779A5.246,5.246,0,0,0,80.727,0c-3.456,0-6.271,3.071-6.271,6.845a7.143,7.143,0,0,0,1.777,4.775L82.8,18.933a17.771,17.771,0,0,0,1.762,7.461,14.187,14.187,0,0,1,1.517,6.793,17.751,17.751,0,0,1-.152,2.372L83.9,30.631a6.623,6.623,0,0,0-6.128-4.082h-33.2a6.631,6.631,0,0,0-6.135,4.093l-6.2,15.13a14.417,14.417,0,0,0-1.191-2.256,7.941,7.941,0,0,1,0-9.045,10.759,10.759,0,0,0,1.85-5.564l6.584-7.336A7.135,7.135,0,0,0,41.254,16.8c0-3.774-2.814-6.845-6.271-6.845a5.246,5.246,0,0,0-3.69,1.779A5.246,5.246,0,0,0,27.6,9.956c-3.456,0-6.271,3.071-6.271,6.845a7.143,7.143,0,0,0,1.777,4.775l6.48,7.219a7.506,7.506,0,0,1-1.37,3.936,10.544,10.544,0,0,0-1.907,6.263,10.544,10.544,0,0,0,1.907,6.263,7.6,7.6,0,0,1,1.344,3.583,6.573,6.573,0,0,0-1.59,4.259V66.373a6.647,6.647,0,0,0,6.64,6.637,6.647,6.647,0,0,0,6.64,6.637h3.32a6.646,6.646,0,0,0,6.64-6.637H71.136a6.646,6.646,0,0,0,6.64,6.637H81.1a6.646,6.646,0,0,0,6.64-6.637,6.646,6.646,0,0,0,6.64-6.637V53.1A6.622,6.622,0,0,0,90.691,47.185Z" transform="translate(-21.333 0)" fill="#4ea010"/>
    <path id="Path_169" data-name="Path 169" d="M384,24.861a3.281,3.281,0,0,1,2.951-3.528c.447,0,1.32.53,2.305,2.022a1.722,1.722,0,0,0,2.769,0c.986-1.491,1.858-2.022,2.305-2.022a3.281,3.281,0,0,1,2.951,3.528,3.831,3.831,0,0,1-.927,2.56l-5.713,6.368-5.71-6.363A3.839,3.839,0,0,1,384,24.861Z" transform="translate(-327.556 -18.013)" fill="#7aed22"/>
    <path id="Path_170" data-name="Path 170" d="M118.612,194.044A3.319,3.319,0,0,1,121.679,192h33.2a3.311,3.311,0,0,1,3.061,2.033L163.91,208.6H112.65Z" transform="translate(-98.438 -162.136)" fill="#bbdefb"/>
    <path id="Path_171" data-name="Path 171" d="M118.612,194.044A3.319,3.319,0,0,1,121.679,192h33.2a3.311,3.311,0,0,1,3.061,2.033L163.91,208.6H112.65Z" transform="translate(-98.438 -162.136)" fill="url(#linear-gradient)"/>
    <path id="Path_172" data-name="Path 172" d="M42.667,88.861a3.281,3.281,0,0,1,2.951-3.528c.447,0,1.32.53,2.305,2.022a1.722,1.722,0,0,0,2.769,0c.986-1.491,1.858-2.022,2.305-2.022a3.281,3.281,0,0,1,2.95,3.528,3.831,3.831,0,0,1-.927,2.56l-5.713,6.368L43.6,91.426A3.839,3.839,0,0,1,42.667,88.861Z" transform="translate(-39.347 -72.06)" fill="#7aed22"/>
    <path id="Path_173" data-name="Path 173" d="M55.021,104.359l-4.295,4.787a1.906,1.906,0,0,1-2.837,0L43.6,104.364a3.682,3.682,0,0,1-.789-1.742,3.972,3.972,0,0,0-.142.837,3.839,3.839,0,0,0,.931,2.565l5.71,6.363,5.713-6.368a3.83,3.83,0,0,0,.927-2.56,3.959,3.959,0,0,0-.141-.837A3.671,3.671,0,0,1,55.021,104.359Z" transform="translate(-39.347 -86.659)" opacity="0.1"/>
    <path id="Path_174" data-name="Path 174" d="M396.354,40.359l-4.295,4.787a1.906,1.906,0,0,1-2.837,0l-4.291-4.782a3.682,3.682,0,0,1-.789-1.742,3.976,3.976,0,0,0-.142.837,3.839,3.839,0,0,0,.931,2.565l5.71,6.363,5.713-6.368a3.831,3.831,0,0,0,.927-2.56,3.963,3.963,0,0,0-.141-.837A3.672,3.672,0,0,1,396.354,40.359Z" transform="translate(-327.556 -32.611)" opacity="0.1"/>
    <g id="Group_116" data-name="Group 116" transform="translate(9.961 49.766)">
      <path id="Path_175" data-name="Path 175" d="M134.641,472.654h-3.32a3.323,3.323,0,0,1-3.32-3.32h9.961A3.324,3.324,0,0,1,134.641,472.654Z" transform="translate(-121.361 -446.093)" fill="#7aed22"/>
      <path id="Path_176" data-name="Path 176" d="M369.307,472.654h-3.32a3.323,3.323,0,0,1-3.32-3.32h9.961A3.324,3.324,0,0,1,369.307,472.654Z" transform="translate(-319.504 -446.093)" fill="#7aed22"/>
      <path id="Path_177" data-name="Path 177" d="M145.1,336.6a3.323,3.323,0,0,1-3.32,3.32H88.654a3.323,3.323,0,0,1-3.32-3.32V323.321a3.324,3.324,0,0,1,3.32-3.32h53.123a3.323,3.323,0,0,1,3.32,3.32Z" transform="translate(-85.334 -320.001)" fill="#7aed22"/>
    </g>
    <circle id="Ellipse_20" data-name="Ellipse 20" cx="6.64" cy="6.64" r="6.64" transform="translate(13.281 53.093)" fill="#4ea010"/>
    <circle id="Ellipse_21" data-name="Ellipse 21" cx="3.32" cy="3.32" r="3.32" transform="translate(16.601 56.415)" fill="#fafafa"/>
    <circle id="Ellipse_22" data-name="Ellipse 22" cx="6.64" cy="6.64" r="6.64" transform="translate(53.123 53.093)" fill="#4ea010"/>
    <circle id="Ellipse_23" data-name="Ellipse 23" cx="3.32" cy="3.32" r="3.32" transform="translate(56.444 56.415)" fill="#fafafa"/>
    <g id="Group_117" data-name="Group 117" transform="translate(29.882 56.413)">
      <path id="Path_178" data-name="Path 178" d="M231.594,362.667h-16.6a1.66,1.66,0,1,0,0,3.32h16.6a1.66,1.66,0,1,0,0-3.32Z" transform="translate(-213.333 -362.667)" fill="#4ea010"/>
      <path id="Path_179" data-name="Path 179" d="M231.594,405.333h-16.6a1.66,1.66,0,0,0,0,3.32h16.6a1.66,1.66,0,0,0,0-3.32Z" transform="translate(-213.333 -398.693)" fill="#4ea010"/>
    </g>
  </g>
</svg>
