<svg id="discount" xmlns="http://www.w3.org/2000/svg" width="68.804" height="71.705" viewBox="0 0 68.804 71.705">
  <g id="Group_24" data-name="Group 24" transform="translate(0 0)">
    <g id="Group_23" data-name="Group 23" transform="translate(0 0)">
      <path id="Path_47" data-name="Path 47" d="M75.845,36.78a2.1,2.1,0,0,1,0-1.857l2.674-5.471a6.225,6.225,0,0,0-2.686-8.266l-5.379-2.854a2.1,2.1,0,0,1-1.092-1.5l-1.052-6a6.225,6.225,0,0,0-7.032-5.109l-6.029.853A2.1,2.1,0,0,1,53.483,6L49.107,1.766a6.224,6.224,0,0,0-8.691,0L36.038,6a2.1,2.1,0,0,1-1.766.574l-6.029-.853a6.224,6.224,0,0,0-7.032,5.109l-1.052,6a2.1,2.1,0,0,1-1.092,1.5l-5.379,2.854A6.225,6.225,0,0,0,11,29.452l2.674,5.471a2.1,2.1,0,0,1,0,1.857L11,42.251a6.225,6.225,0,0,0,2.686,8.266l5.379,2.854a2.1,2.1,0,0,1,1.092,1.5l1.052,6a6.221,6.221,0,0,0,6.136,5.172,6.4,6.4,0,0,0,.9-.063l6.029-.853a2.1,2.1,0,0,1,1.766.574l4.377,4.234a6.224,6.224,0,0,0,8.691,0L53.483,65.7a2.1,2.1,0,0,1,1.766-.574l6.029.853a6.224,6.224,0,0,0,7.032-5.109l1.052-6a2.1,2.1,0,0,1,1.092-1.5l5.379-2.854a6.225,6.225,0,0,0,2.686-8.266ZM73.9,46.863l-5.379,2.854a6.211,6.211,0,0,0-3.227,4.441l-1.052,6a2.106,2.106,0,0,1-2.379,1.728l-6.029-.853a6.209,6.209,0,0,0-5.221,1.7l-4.377,4.234a2.106,2.106,0,0,1-2.941,0l-4.377-4.234a6.2,6.2,0,0,0-4.331-1.759,6.348,6.348,0,0,0-.89.063l-6.029.853a2.107,2.107,0,0,1-2.379-1.728l-1.052-6a6.21,6.21,0,0,0-3.227-4.441l-5.379-2.854a2.106,2.106,0,0,1-.909-2.8L17.391,38.6a6.211,6.211,0,0,0,0-5.49l-2.674-5.471a2.106,2.106,0,0,1,.909-2.8l5.379-2.854a6.211,6.211,0,0,0,3.227-4.441l1.052-6a2.106,2.106,0,0,1,2.379-1.728l6.029.853a6.211,6.211,0,0,0,5.221-1.7L43.29,4.739a2.106,2.106,0,0,1,2.941,0l4.377,4.234a6.21,6.21,0,0,0,5.221,1.7l6.029-.853a2.106,2.106,0,0,1,2.379,1.728l1.052,6a6.21,6.21,0,0,0,3.227,4.441L73.9,24.838a2.106,2.106,0,0,1,.909,2.8L72.13,33.106a6.21,6.21,0,0,0,0,5.49L74.8,44.066A2.106,2.106,0,0,1,73.9,46.863Z" transform="translate(-10.359 0.002)" fill="#79e228"/>
    </g>
  </g>
  <g id="Group_26" data-name="Group 26" transform="translate(18.687 20.138)">
    <g id="Group_25" data-name="Group 25">
      <path id="Path_48" data-name="Path 48" d="M174.615,144.4a2.068,2.068,0,0,0-2.924,0L144.4,171.691a2.068,2.068,0,1,0,2.924,2.924l27.294-27.294A2.068,2.068,0,0,0,174.615,144.4Z" transform="translate(-143.791 -143.791)" fill="#79e228"/>
    </g>
  </g>
  <g id="Group_28" data-name="Group 28" transform="translate(18.548 17.242)">
    <g id="Group_27" data-name="Group 27">
      <path id="Path_49" data-name="Path 49" d="M150.384,123.116a7.582,7.582,0,1,0,7.582,7.582A7.591,7.591,0,0,0,150.384,123.116Zm0,11.028a3.446,3.446,0,1,1,3.446-3.446A3.45,3.45,0,0,1,150.384,134.144Z" transform="translate(-142.802 -123.116)" fill="#79e228"/>
    </g>
  </g>
  <g id="Group_30" data-name="Group 30" transform="translate(35.091 39.299)">
    <g id="Group_29" data-name="Group 29">
      <path id="Path_50" data-name="Path 50" d="M268.5,280.61a7.582,7.582,0,1,0,7.582,7.582A7.591,7.591,0,0,0,268.5,280.61Zm0,11.028a3.446,3.446,0,1,1,3.446-3.446A3.45,3.45,0,0,1,268.5,291.638Z" transform="translate(-260.922 -280.61)" fill="#79e228"/>
    </g>
  </g>
</svg>
