<svg xmlns="http://www.w3.org/2000/svg" width="67.122" height="83.926" viewBox="0 0 67.122 83.926">
  <g id="feeding-chair" transform="translate(-0.068)">
    <g id="Group_114" data-name="Group 114" transform="translate(1.466 1.422)">
      <path id="Path_146" data-name="Path 146" d="M66.8,260.885h5.594L66.8,216.137H64v11.187H62.6l1.748,13.984H16.107l1.748-13.984h-1.4V216.137h-2.8L8.066,260.885H13.66L15.408,246.9H65.05Zm0,0" transform="translate(-8.066 -179.779)" fill="#7aed22"/>
      <path id="Path_147" data-name="Path 147" d="M119.221,22.121h-5.594a13.984,13.984,0,1,0-27.968,0H80.066v5.594h39.155Zm-13.984,0H94.05v-1.4a5.594,5.594,0,1,1,11.187,0Zm0,0" transform="translate(-67.481 -8.137)" fill="#7aed22"/>
      <path id="Path_148" data-name="Path 148" d="M95.221,152.137v8.39c0,4.634-2.358,8.39-6.992,8.39H71.448c-4.634,0-6.992-3.756-6.992-8.39v-8.39h-8.39v22.374h6.662a2.8,2.8,0,0,1,2.5,1.547l.477.955a5.6,5.6,0,0,0,5,3.092H88.967a5.6,5.6,0,0,0,5-3.092l.477-.955a2.8,2.8,0,0,1,2.5-1.547h6.662V152.137Zm0,0" transform="translate(-47.676 -126.966)" fill="#7aed22"/>
      <path id="Path_149" data-name="Path 149" d="M176.066,152.137h5.594v16.781h-5.594Zm0,0" transform="translate(-146.7 -126.966)" fill="#7aed22"/>
    </g>
    <path id="Path_150" data-name="Path 150" d="M159.058,40.137a7,7,0,0,0-6.992,6.992v1.4a1.4,1.4,0,0,0,1.4,1.4h11.187a1.4,1.4,0,0,0,1.4-1.4v-1.4A7,7,0,0,0,159.058,40.137Zm-4.2,6.992a4.2,4.2,0,0,1,8.39,0Zm0,0" transform="translate(-125.429 -33.121)" fill="#4ea010"/>
    <path id="Path_151" data-name="Path 151" d="M61.779,39.16a4.2,4.2,0,0,0,4.012-4.177V29.39a4.2,4.2,0,0,0-4.2-4.2V21a1.4,1.4,0,0,0-1.4-1.4H54.6v-4.2a1.4,1.4,0,0,0-1.4-1.4H48.949a15.382,15.382,0,0,0-30.641,0H14.051a1.4,1.4,0,0,0-1.4,1.4v4.2H7.059a1.4,1.4,0,0,0-1.4,1.4v4.2a4.2,4.2,0,0,0-4.2,4.2v5.594A4.2,4.2,0,0,0,5.478,39.16L.078,82.355a1.4,1.4,0,0,0,1.387,1.572H7.059A1.4,1.4,0,0,0,8.447,82.7l1.6-12.759H57.215L58.81,82.7A1.4,1.4,0,0,0,60.2,83.926h5.594a1.4,1.4,0,0,0,1.387-1.572Zm1.215-9.77v5.594a1.4,1.4,0,0,1-1.4,1.4H58.8v-8.39h2.8A1.4,1.4,0,0,1,62.995,29.39ZM56.167,61.552H11.091l1.4-11.187h4.029a1.391,1.391,0,0,1,1.25.774l.478.955A6.953,6.953,0,0,0,24.5,55.959H42.757a6.953,6.953,0,0,0,6.254-3.865l.478-.955a1.391,1.391,0,0,1,1.25-.774h4.029ZM16.848,27.991v6.992c0,5.855,3.372,9.789,8.39,9.789H42.019c5.019,0,8.39-3.934,8.39-9.789V27.991H56V47.569H50.739a4.172,4.172,0,0,0-3.752,2.319l-.478.956a4.168,4.168,0,0,1-3.752,2.319H24.5a4.168,4.168,0,0,1-3.752-2.319l-.479-.956a4.17,4.17,0,0,0-3.751-2.319H11.255V27.991Zm30.764,0v6.992c0,3.38-1.47,6.992-5.594,6.992h-4.2V27.991ZM35.027,41.975h-2.8V27.991h2.8Zm-5.594,0h-4.2c-4.124,0-5.594-3.612-5.594-6.992V27.991h9.789ZM15.45,16.8h4.2a1.4,1.4,0,0,0,1.4-1.4,12.585,12.585,0,0,1,25.171,0,1.4,1.4,0,0,0,1.4,1.4h4.2v2.8H15.45ZM8.458,22.4H58.8v2.8H8.458Zm-4.2,12.585V29.39a1.4,1.4,0,0,1,1.4-1.4h2.8v8.39h-2.8A1.4,1.4,0,0,1,4.263,34.983ZM61.432,81.13l-1.6-12.759a1.4,1.4,0,0,0-1.387-1.225H8.807A1.4,1.4,0,0,0,7.42,68.371L5.825,81.13H3.05L8.294,39.178h.164v9.789a1.382,1.382,0,0,0,1.218,1.362L8.119,62.775a1.4,1.4,0,0,0,1.387,1.575H57.751a1.4,1.4,0,0,0,1.387-1.572L57.581,50.332A1.382,1.382,0,0,0,58.8,48.967V39.178h.164L64.207,81.13Zm0,0" fill="#4ea010"/>
  </g>
</svg>
