<svg xmlns="http://www.w3.org/2000/svg" width="75.055" height="52.946" viewBox="0 0 75.055 52.946">
  <g id="car_2_" data-name="car(2)" transform="translate(0 0)">
    <path id="Path_184" data-name="Path 184" d="M52.826,8.214v49.5a53.942,53.942,0,0,1-8.115.608c-20.493,0-37.105-11.353-37.105-25.36S24.218,7.605,44.711,7.605a53.94,53.94,0,0,1,8.115.608Zm0,0" transform="translate(-6.491 -6.49)" fill="#57a4ff"/>
    <path id="Path_185" data-name="Path 185" d="M52.826,203.795v13.353a50.962,50.962,0,0,1-8.115.645c-20.493,0-37.105-12.031-37.105-26.874,0,7.287,16.612,13.193,37.105,13.193,2.788,0,5.5-.11,8.115-.317Zm0,0" transform="translate(-6.491 -165.961)" fill="#57a4ff"/>
    <path id="Path_186" data-name="Path 186" d="M268.842,8.214v49.5a53.942,53.942,0,0,1-8.115.608V7.605a53.94,53.94,0,0,1,8.115.608Zm0,0" transform="translate(-222.506 -6.49)" fill="#e6e6e6"/>
    <path id="Path_187" data-name="Path 187" d="M260.727,292.755a50.962,50.962,0,0,0,8.115-.645V278.758c-2.611.207-5.328.317-8.115.317Zm0,0" transform="translate(-222.507 -240.924)" fill="#ccc"/>
    <path id="Path_188" data-name="Path 188" d="M46.513.623A55.167,55.167,0,0,0,38.221,0C28.076,0,18.526,2.715,11.329,7.645,4.024,12.65,0,19.336,0,26.472A21.017,21.017,0,0,0,6.119,40.865a1.159,1.159,0,0,0,1.573.091,1.014,1.014,0,0,0,.1-1.488,19.007,19.007,0,0,1-5.559-13c0-13.181,15.545-23.95,34.876-24.351v48.7c-10.15-.212-19.689-3.316-26.312-8.592a1.159,1.159,0,0,0-1.571.127,1.016,1.016,0,0,0,.135,1.486c7.261,5.784,17.781,9.1,28.863,9.1a55.1,55.1,0,0,0,8.293-.623,1.075,1.075,0,0,0,.937-1.041V12.142a1.117,1.117,0,0,0-2.23,0V50.375a52.686,52.686,0,0,1-5.886.45V2.122a52.816,52.816,0,0,1,5.886.449V7.924a1.117,1.117,0,0,0,2.23,0V1.664A1.075,1.075,0,0,0,46.513.623Zm0,0" transform="translate(0 0)" fill="#004fac"/>
    <path id="Path_189" data-name="Path 189" d="M357.233,100.178l20.581,5.23a1.115,1.115,0,1,0,.549-2.161l-20.581-5.23a1.115,1.115,0,0,0-.549,2.16Zm0,0" transform="translate(-304.149 -84.516)" fill="#004fac"/>
    <path id="Path_190" data-name="Path 190" d="M378.364,182.071l-20.581-5.229a1.115,1.115,0,0,0-.549,2.16l20.581,5.229a1.115,1.115,0,1,0,.549-2.16Zm0,0" transform="translate(-304.149 -152.507)" fill="#004fac"/>
    <path id="Path_191" data-name="Path 191" d="M378.364,260.891l-20.581-5.229a1.115,1.115,0,0,0-.549,2.161l20.581,5.23a1.115,1.115,0,0,0,.549-2.161Zm0,0" transform="translate(-304.149 -220.494)" fill="#004fac"/>
  </g>
</svg>
