<svg xmlns="http://www.w3.org/2000/svg" width="99.16" height="61.978" viewBox="0 0 99.16 61.978">
  <g id="bedroom" transform="translate(0 61.978) rotate(-90)">
    <path id="Path_99" data-name="Path 99" d="M38.734,15.494H6.2A6.215,6.215,0,0,1,0,9.3V0A6.215,6.215,0,0,0,6.2,6.2H52.679a6.216,6.216,0,0,0,6.2-6.2V9.3a6.216,6.216,0,0,1-6.2,6.2Zm0,0" transform="translate(1.551 82.117)" fill="#d7e9ff"/>
    <path id="Path_100" data-name="Path 100" d="M58.876,15.494V80.568a6.216,6.216,0,0,1-6.2,6.2H6.2a6.215,6.215,0,0,1-6.2-6.2V6.2A6.215,6.215,0,0,1,6.2,0H52.679a6.216,6.216,0,0,1,6.2,6.2Zm0,0" transform="translate(1.551 1.549)" fill="#57a4ff"/>
    <g id="Group_111" data-name="Group 111" transform="translate(0)">
      <path id="Path_101" data-name="Path 101" d="M54.231,89.861H7.747A7.756,7.756,0,0,1,0,82.114V7.747A7.756,7.756,0,0,1,7.747,0H54.231a7.756,7.756,0,0,1,7.747,7.747V82.114A7.756,7.756,0,0,1,54.231,89.861ZM7.747,3.1A4.654,4.654,0,0,0,3.1,7.747V82.114a4.654,4.654,0,0,0,4.648,4.648H54.231a4.654,4.654,0,0,0,4.648-4.648V7.747A4.654,4.654,0,0,0,54.231,3.1Zm0,0" fill="#004fac"/>
      <path id="Path_102" data-name="Path 102" d="M54.231,83.663H7.747A7.756,7.756,0,0,1,0,75.916V1.549a1.549,1.549,0,0,1,3.1,0V75.916a4.654,4.654,0,0,0,4.648,4.648H54.231a4.654,4.654,0,0,0,4.648-4.648V1.549a1.549,1.549,0,0,1,3.1,0V75.916A7.756,7.756,0,0,1,54.231,83.663Zm0,0" transform="translate(0 15.497)" fill="#004fac"/>
      <path id="Path_103" data-name="Path 103" d="M1.549,6.194A1.548,1.548,0,0,1,0,4.645v-3.1a1.549,1.549,0,0,1,3.1,0v3.1A1.548,1.548,0,0,1,1.549,6.194Zm0,0" transform="translate(10.847 92.966)" fill="#004fac"/>
      <path id="Path_104" data-name="Path 104" d="M1.549,6.194A1.548,1.548,0,0,1,0,4.645v-3.1a1.549,1.549,0,0,1,3.1,0v3.1A1.548,1.548,0,0,1,1.549,6.194Zm0,0" transform="translate(20.143 92.966)" fill="#004fac"/>
      <path id="Path_105" data-name="Path 105" d="M1.549,6.194A1.548,1.548,0,0,1,0,4.645v-3.1a1.549,1.549,0,0,1,3.1,0v3.1A1.548,1.548,0,0,1,1.549,6.194Zm0,0" transform="translate(29.44 92.966)" fill="#004fac"/>
      <path id="Path_106" data-name="Path 106" d="M1.549,6.194A1.548,1.548,0,0,1,0,4.645v-3.1a1.549,1.549,0,0,1,3.1,0v3.1A1.548,1.548,0,0,1,1.549,6.194Zm0,0" transform="translate(38.736 92.966)" fill="#004fac"/>
      <path id="Path_107" data-name="Path 107" d="M1.549,6.194A1.548,1.548,0,0,1,0,4.645v-3.1a1.549,1.549,0,0,1,3.1,0v3.1A1.548,1.548,0,0,1,1.549,6.194Zm0,0" transform="translate(48.032 92.966)" fill="#004fac"/>
      <path id="Path_108" data-name="Path 108" d="M4.646,6.2a1.546,1.546,0,0,1-1.1-.454l-3.1-3.1A1.549,1.549,0,0,1,2.645.454l3.1,3.1A1.549,1.549,0,0,1,4.646,6.2Zm0,0" transform="translate(27.891 10.845)" fill="#004fac"/>
      <path id="Path_109" data-name="Path 109" d="M1.55,6.2A1.549,1.549,0,0,1,.454,3.55l3.1-3.1A1.549,1.549,0,0,1,5.741,2.645l-3.1,3.1A1.546,1.546,0,0,1,1.55,6.2Zm0,0" transform="translate(27.891 10.845)" fill="#004fac"/>
      <path id="Path_110" data-name="Path 110" d="M4.646,6.2a1.546,1.546,0,0,1-1.1-.454l-3.1-3.1A1.549,1.549,0,0,1,2.645.454l3.1,3.1A1.549,1.549,0,0,1,4.646,6.2Zm0,0" transform="translate(43.413 10.845)" fill="#004fac"/>
      <path id="Path_111" data-name="Path 111" d="M1.55,6.2A1.549,1.549,0,0,1,.454,3.55l3.1-3.1A1.549,1.549,0,0,1,5.741,2.645l-3.1,3.1A1.553,1.553,0,0,1,1.55,6.2Zm0,0" transform="translate(43.413 10.845)" fill="#004fac"/>
      <path id="Path_112" data-name="Path 112" d="M4.646,6.2a1.545,1.545,0,0,1-1.1-.454l-3.1-3.1A1.549,1.549,0,1,1,2.645.454l3.1,3.1A1.549,1.549,0,0,1,4.646,6.2Zm0,0" transform="translate(12.419 10.845)" fill="#004fac"/>
      <path id="Path_113" data-name="Path 113" d="M1.55,6.2A1.549,1.549,0,0,1,.454,3.55l3.1-3.1A1.549,1.549,0,1,1,5.741,2.645l-3.1,3.1A1.55,1.55,0,0,1,1.55,6.2Zm0,0" transform="translate(12.419 10.845)" fill="#004fac"/>
      <path id="Path_114" data-name="Path 114" d="M4.646,6.2a1.546,1.546,0,0,1-1.1-.454l-3.1-3.1A1.549,1.549,0,0,1,2.645.454l3.1,3.1A1.549,1.549,0,0,1,4.646,6.2Zm0,0" transform="translate(27.891 41.864)" fill="#004fac"/>
      <path id="Path_115" data-name="Path 115" d="M1.55,6.2A1.549,1.549,0,0,1,.454,3.55l3.1-3.1A1.549,1.549,0,1,1,5.741,2.645l-3.1,3.1A1.546,1.546,0,0,1,1.55,6.2Zm0,0" transform="translate(27.891 41.864)" fill="#004fac"/>
      <path id="Path_116" data-name="Path 116" d="M4.646,6.2a1.546,1.546,0,0,1-1.1-.454l-3.1-3.1A1.549,1.549,0,0,1,2.645.454l3.1,3.1A1.549,1.549,0,0,1,4.646,6.2Zm0,0" transform="translate(43.413 41.864)" fill="#004fac"/>
      <path id="Path_117" data-name="Path 117" d="M1.55,6.2A1.549,1.549,0,0,1,.454,3.55l3.1-3.1A1.549,1.549,0,1,1,5.741,2.645l-3.1,3.1A1.553,1.553,0,0,1,1.55,6.2Zm0,0" transform="translate(43.413 41.864)" fill="#004fac"/>
      <path id="Path_118" data-name="Path 118" d="M4.646,6.2a1.545,1.545,0,0,1-1.1-.454l-3.1-3.1A1.549,1.549,0,1,1,2.645.454l3.1,3.1A1.549,1.549,0,0,1,4.646,6.2Zm0,0" transform="translate(12.419 41.864)" fill="#004fac"/>
      <path id="Path_119" data-name="Path 119" d="M1.55,6.2A1.549,1.549,0,0,1,.454,3.55l3.1-3.1A1.549,1.549,0,1,1,5.741,2.645l-3.1,3.1A1.55,1.55,0,0,1,1.55,6.2Zm0,0" transform="translate(12.419 41.864)" fill="#004fac"/>
      <path id="Path_120" data-name="Path 120" d="M4.646,6.2a1.546,1.546,0,0,1-1.1-.454l-3.1-3.1A1.549,1.549,0,0,1,2.645.454l3.1,3.1A1.549,1.549,0,0,1,4.646,6.2Zm0,0" transform="translate(27.891 72.881)" fill="#004fac"/>
      <path id="Path_121" data-name="Path 121" d="M1.55,6.2A1.549,1.549,0,0,1,.454,3.55l3.1-3.1A1.549,1.549,0,0,1,5.741,2.645l-3.1,3.1A1.546,1.546,0,0,1,1.55,6.2Zm0,0" transform="translate(27.891 72.881)" fill="#004fac"/>
      <path id="Path_122" data-name="Path 122" d="M4.646,6.2a1.546,1.546,0,0,1-1.1-.454l-3.1-3.1A1.549,1.549,0,0,1,2.645.454l3.1,3.1A1.549,1.549,0,0,1,4.646,6.2Zm0,0" transform="translate(43.413 72.881)" fill="#004fac"/>
      <path id="Path_123" data-name="Path 123" d="M1.55,6.2A1.549,1.549,0,0,1,.454,3.55l3.1-3.1A1.549,1.549,0,0,1,5.741,2.645l-3.1,3.1A1.553,1.553,0,0,1,1.55,6.2Zm0,0" transform="translate(43.413 72.881)" fill="#004fac"/>
      <path id="Path_124" data-name="Path 124" d="M4.646,6.2a1.545,1.545,0,0,1-1.1-.454l-3.1-3.1A1.549,1.549,0,0,1,2.645.454l3.1,3.1A1.549,1.549,0,0,1,4.646,6.2Zm0,0" transform="translate(12.419 72.881)" fill="#004fac"/>
      <path id="Path_125" data-name="Path 125" d="M1.55,6.2A1.549,1.549,0,0,1,.454,3.55l3.1-3.1A1.549,1.549,0,1,1,5.741,2.645l-3.1,3.1A1.55,1.55,0,0,1,1.55,6.2Zm0,0" transform="translate(12.419 72.881)" fill="#004fac"/>
      <path id="Path_126" data-name="Path 126" d="M4.645,6.2a1.548,1.548,0,0,1-1.1-.454l-3.1-3.1A1.549,1.549,0,0,1,2.645.454l3.1,3.1A1.549,1.549,0,0,1,4.645,6.2Zm0,0" transform="translate(35.646 26.342)" fill="#004fac"/>
      <path id="Path_127" data-name="Path 127" d="M1.549,6.2A1.549,1.549,0,0,1,.454,3.55l3.1-3.1A1.549,1.549,0,0,1,5.741,2.645l-3.1,3.1A1.545,1.545,0,0,1,1.549,6.2Zm0,0" transform="translate(35.646 26.342)" fill="#004fac"/>
      <path id="Path_128" data-name="Path 128" d="M4.646,6.2a1.546,1.546,0,0,1-1.1-.454l-3.1-3.1A1.549,1.549,0,0,1,2.645.454l3.1,3.1A1.549,1.549,0,0,1,4.646,6.2Zm0,0" transform="translate(20.174 26.342)" fill="#004fac"/>
      <path id="Path_129" data-name="Path 129" d="M1.55,6.2A1.549,1.549,0,0,1,.454,3.55l3.1-3.1A1.549,1.549,0,0,1,5.741,2.645l-3.1,3.1a1.551,1.551,0,0,1-1.1.454Zm0,0" transform="translate(20.174 26.342)" fill="#004fac"/>
      <path id="Path_130" data-name="Path 130" d="M4.645,6.2a1.548,1.548,0,0,1-1.1-.454l-3.1-3.1A1.549,1.549,0,0,1,2.645.454l3.1,3.1A1.549,1.549,0,0,1,4.645,6.2Zm0,0" transform="translate(35.646 57.36)" fill="#004fac"/>
      <path id="Path_131" data-name="Path 131" d="M1.549,6.2A1.549,1.549,0,0,1,.454,3.55l3.1-3.1A1.549,1.549,0,1,1,5.741,2.645l-3.1,3.1A1.545,1.545,0,0,1,1.549,6.2Zm0,0" transform="translate(35.646 57.36)" fill="#004fac"/>
      <path id="Path_132" data-name="Path 132" d="M4.646,6.2a1.546,1.546,0,0,1-1.1-.454l-3.1-3.1A1.549,1.549,0,1,1,2.645.454l3.1,3.1A1.549,1.549,0,0,1,4.646,6.2Zm0,0" transform="translate(20.174 57.36)" fill="#004fac"/>
      <path id="Path_133" data-name="Path 133" d="M1.55,6.2A1.549,1.549,0,0,1,.454,3.55l3.1-3.1A1.549,1.549,0,0,1,5.741,2.645l-3.1,3.1a1.551,1.551,0,0,1-1.1.454Zm0,0" transform="translate(20.174 57.36)" fill="#004fac"/>
    </g>
  </g>
</svg>
