<svg xmlns="http://www.w3.org/2000/svg" width="77.635" height="77.635" viewBox="0 0 77.635 77.635">
  <g id="carpet" transform="translate(0 0)">
    <g id="Group_10" data-name="Group 10" transform="translate(1.252 1.252)">
      <rect id="Rectangle_13" data-name="Rectangle 13" width="24" height="10" transform="translate(19.869 57.748)" fill="#57a4ff"/>
      <rect id="Rectangle_14" data-name="Rectangle 14" width="24" height="11" transform="translate(19.869 41.748)" fill="#57a4ff"/>
      <rect id="Rectangle_15" data-name="Rectangle 15" width="24" height="11" transform="translate(19.869 26.748)" fill="#57a4ff"/>
      <path id="Path_32" data-name="Path 32" d="M0,0H23.791V10.017H0Z" transform="translate(20.035 12.522)" fill="#57a4ff"/>
      <path id="Path_26" data-name="Path 26" d="M18.017,18.017a10.006,10.006,0,0,1,8.666,5.009,10.017,10.017,0,1,0-17.333,0A10.006,10.006,0,0,1,18.017,18.017Z" transform="translate(-8 -8)" fill="#57a4ff"/>
      <path id="Path_27" data-name="Path 27" d="M18.017,114.017a10.006,10.006,0,0,1,8.666,5.009,10.017,10.017,0,1,0-17.333,0A10.006,10.006,0,0,1,18.017,114.017Z" transform="translate(-8 -88.974)" fill="#57a4ff"/>
      <path id="Path_28" data-name="Path 28" d="M18.017,210.017a10.006,10.006,0,0,1,8.666,5.009,10.017,10.017,0,1,0-17.333,0A10.006,10.006,0,0,1,18.017,210.017Z" transform="translate(-8 -169.948)" fill="#57a4ff"/>
      <path id="Path_29" data-name="Path 29" d="M18.017,306.017a10.006,10.006,0,0,1,8.666,5.009,10.017,10.017,0,1,0-17.333,0A10.006,10.006,0,0,1,18.017,306.017Z" transform="translate(-8 -250.922)" fill="#57a4ff"/>
    </g>
    <g id="Group_11" data-name="Group 11" transform="translate(0)">
      <path id="Path_30" data-name="Path 30" d="M38.261,384a6.261,6.261,0,0,0,0,12.522v-2.5a3.755,3.755,0,1,1,1.877-.5l1.255,2.167A6.261,6.261,0,0,0,38.261,384Z" transform="translate(-26.991 -323.896)" fill="#004fac"/>
      <path id="Path_31" data-name="Path 31" d="M66.365,30.052h11.27V12.522H66.365A8.736,8.736,0,0,0,60.1,15.164V12.522H22.539V11.27A11.27,11.27,0,0,0,0,11.27v55.1a11.283,11.283,0,0,0,11.27,11.27H60.1V74.993a8.736,8.736,0,0,0,6.261,2.642h11.27V60.1H66.365A8.736,8.736,0,0,0,60.1,62.746V27.41A8.736,8.736,0,0,0,66.365,30.052Zm0-15.026H75.13v2.5H66.365v2.5H75.13v2.5H66.365v2.5H75.13v2.5H66.365a6.261,6.261,0,0,1,0-12.522ZM57.6,21.287H47.583V15.026H57.6Zm0,37.565H47.583V53.843H57.6Zm0-7.513H47.583V46.33H57.6Zm0-7.513H47.583V38.817H57.6Zm0-7.513H47.583V31.3H57.6ZM47.583,28.8V23.791H57.6V28.8ZM2.5,11.27a8.765,8.765,0,0,1,17.53,0V59.3a11.242,11.242,0,0,0-17.53,0Zm0,55.1A8.765,8.765,0,1,1,11.27,75.13,8.775,8.775,0,0,1,2.5,66.365Zm20.035,0V15.026H45.078v60.1H18.337A11.248,11.248,0,0,0,22.539,66.365ZM57.6,75.13H47.583V68.87h5.009v-2.5H47.583V61.357H57.6v5.009H55.1v2.5h2.5Zm8.765-12.522H75.13v2.5H66.365v2.5H75.13v2.5H66.365v2.5H75.13v2.5H66.365a6.261,6.261,0,0,1,0-12.522Z" transform="translate(0 0)" fill="#004fac"/>
    </g>
  </g>
</svg>
