<svg id="home" xmlns="http://www.w3.org/2000/svg" width="85.065" height="72.553" viewBox="0 0 85.065 72.553">
  <path id="Path_34" data-name="Path 34" d="M70.7,52.113a14.538,14.538,0,0,0-1.857.123V46.83a1.246,1.246,0,1,0-2.492,0V58.422c-.086,0-.172-.006-.259-.006a9.733,9.733,0,0,0-2.724.389V46.956A2.956,2.956,0,0,0,60.414,44H57.342a2.956,2.956,0,0,0-2.953,2.953V60.221h-3.82V46.956A2.956,2.956,0,0,0,47.617,44H34.349A2.956,2.956,0,0,0,31.4,46.956V60.221H27.577V46.956A2.957,2.957,0,0,0,24.624,44H21.552A2.956,2.956,0,0,0,18.6,46.956V60.221H15.616V34.7L40.982,11.924,66.35,34.7v6.7a1.246,1.246,0,0,0,2.492,0V36.937l.459.411a2.956,2.956,0,0,0,4.17-.225l2.85-3.175a2.956,2.956,0,0,0-.225-4.17L62.475,17.55A1.246,1.246,0,1,0,60.81,19.4l13.622,12.23a.461.461,0,0,1,.035.65l-2.851,3.175a.461.461,0,0,1-.65.035L41.815,9.323a1.246,1.246,0,0,0-1.665,0L11,35.494a.461.461,0,0,1-.651-.035L7.5,32.285a.462.462,0,0,1,.035-.651L39.25,3.158a2.591,2.591,0,0,1,3.466,0L56.771,15.777a1.246,1.246,0,0,0,1.665-1.854L44.381,1.3a5.077,5.077,0,0,0-6.8,0L5.869,29.779a2.956,2.956,0,0,0-.225,4.17L8.5,37.124a2.933,2.933,0,0,0,2.038.975c.055,0,.108,0,.162,0a2.934,2.934,0,0,0,1.969-.755l.459-.412v15.23A14.217,14.217,0,0,0,5.717,55.01,1.246,1.246,0,0,0,7.22,57a11.742,11.742,0,0,1,5.9-2.328V70.06H3.043A11.9,11.9,0,0,1,3.995,60.7,1.246,1.246,0,1,0,1.82,59.487a14.386,14.386,0,0,0-.814,12.278,1.246,1.246,0,0,0,1.159.788H82.9a1.246,1.246,0,0,0,1.159-.788A14.376,14.376,0,0,0,70.7,52.113ZM56.881,46.956a.461.461,0,0,1,.461-.46h3.072a.461.461,0,0,1,.461.46V59.932q-.219.139-.43.289H56.881Zm1.125,15.757a9.746,9.746,0,0,0-1.492,7.347H50.569V62.713ZM34.348,46.5H47.616a.461.461,0,0,1,.461.46v23.1H33.888v-23.1a.461.461,0,0,1,.46-.46Zm-13.258.46a.461.461,0,0,1,.461-.46h3.072a.461.461,0,0,1,.461.46V60.221H21.091Zm-5.475,23.1V62.713H31.4v7.347Zm51.98,0H59.069a7.268,7.268,0,1,1,14.044,0Zm14.43,0H75.668a9.763,9.763,0,0,0-6.826-11.248V54.75A11.88,11.88,0,0,1,82.574,66.48a11.839,11.839,0,0,1-.549,3.581Zm0,0" transform="translate(-0.002 0)" fill="#79e228"/>
  <path id="Path_35" data-name="Path 35" d="M266.09,347.179a1.246,1.246,0,0,0,1.246-1.246v-1.414a1.246,1.246,0,0,0-2.492,0v1.414A1.246,1.246,0,0,0,266.09,347.179Zm0,0" transform="translate(-220.842 -286.241)" fill="#79e228"/>
  <path id="Path_36" data-name="Path 36" d="M198.117,150.37a8.065,8.065,0,1,0,8.065-8.065A8.075,8.075,0,0,0,198.117,150.37Zm13.639,0a5.573,5.573,0,1,1-5.574-5.573A5.579,5.579,0,0,1,211.756,150.37Zm0,0" transform="translate(-165.202 -118.662)" fill="#79e228"/>
</svg>
