<svg id="like" xmlns="http://www.w3.org/2000/svg" width="65.315" height="74.314" viewBox="0 0 65.315 74.314">
  <g id="Group_14" data-name="Group 14" transform="translate(0 13.208)">
    <g id="Group_13" data-name="Group 13">
      <path id="Path_37" data-name="Path 37" d="M94.648,123.8a6.528,6.528,0,0,0-4.864-10.886H77.107A42.216,42.216,0,0,0,78.9,101.884V99.709A8.719,8.719,0,0,0,70.189,91H68.012A2.177,2.177,0,0,0,65.9,92.649l-1.186,4.745c-1.662,6.645-6.938,13.976-12.4,15.308a6.54,6.54,0,0,0-6.076-4.14H33.177A2.178,2.178,0,0,0,31,110.74v39.189a2.178,2.178,0,0,0,2.177,2.177H46.24a6.538,6.538,0,0,0,5.9-3.723l7.481,2.494a23.9,23.9,0,0,0,7.574,1.229H85.43a6.533,6.533,0,0,0,6.073-8.938,6.528,6.528,0,0,0,3.145-10.657,6.518,6.518,0,0,0,0-8.709Zm-46.23,21.772a2.18,2.18,0,0,1-2.177,2.177H35.354V112.917H46.24a2.18,2.18,0,0,1,2.177,2.177ZM85.43,125.98h4.354a2.177,2.177,0,0,1,0,4.354H85.43a2.177,2.177,0,1,0,0,4.354h4.354a2.177,2.177,0,1,1,0,4.354H85.43a2.177,2.177,0,1,0,0,4.354,2.177,2.177,0,0,1,0,4.354H67.191a19.552,19.552,0,0,1-6.2-1.006l-8.221-2.74v-26.94c3.415-.649,6.758-2.811,9.776-6.352A31.768,31.768,0,0,0,68.938,98.45l.774-3.1h.478a4.36,4.36,0,0,1,4.354,4.354v2.176c0,2.923-.914,8.53-2.084,11.033H68.012a2.177,2.177,0,0,0,0,4.354H89.784a2.177,2.177,0,1,1,0,4.354H85.43a2.177,2.177,0,0,0,0,4.354Z" transform="translate(-31 -91)" fill="#79e228"/>
    </g>
  </g>
  <g id="Group_16" data-name="Group 16" transform="translate(8.249 61.056)">
    <g id="Group_15" data-name="Group 15" transform="translate(0 0)">
      <circle id="Ellipse_1" data-name="Ellipse 1" cx="2" cy="2" r="2" transform="translate(0.262 0.339)" fill="#79e228"/>
    </g>
  </g>
  <g id="Group_18" data-name="Group 18" transform="translate(39.189)">
    <g id="Group_17" data-name="Group 17">
      <path id="Path_38" data-name="Path 38" d="M303.177,0A2.177,2.177,0,0,0,301,2.177v4.5a2.177,2.177,0,0,0,4.354,0v-4.5A2.177,2.177,0,0,0,303.177,0Z" transform="translate(-301)" fill="#79e228"/>
    </g>
  </g>
  <g id="Group_20" data-name="Group 20" transform="translate(25.334 5.884)">
    <g id="Group_19" data-name="Group 19">
      <path id="Path_39" data-name="Path 39" d="M212.336,44.258l-3.079-3.079a2.177,2.177,0,0,0-3.079,3.079l3.079,3.079a2.177,2.177,0,0,0,3.079-3.079Z" transform="translate(-205.54 -40.542)" fill="#79e228"/>
    </g>
  </g>
  <g id="Group_22" data-name="Group 22" transform="translate(49.966 5.884)">
    <g id="Group_21" data-name="Group 21">
      <path id="Path_40" data-name="Path 40" d="M382.042,41.179a2.177,2.177,0,0,0-3.079,0l-3.079,3.079a2.177,2.177,0,0,0,3.079,3.079l3.079-3.079A2.177,2.177,0,0,0,382.042,41.179Z" transform="translate(-375.247 -40.542)" fill="#79e228"/>
    </g>
  </g>
</svg>
