<svg xmlns="http://www.w3.org/2000/svg" width="84.672" height="66.846" viewBox="0 0 84.672 66.846">
  <g id="pillow_1_" data-name="pillow(1)" transform="translate(0 -53.894)">
    <path id="Path_134" data-name="Path 134" d="M86.24,75.009a14.259,14.259,0,0,0-1.506,6.378V106.74a14.26,14.26,0,0,0,1.506,6.378l3.357,6.713a4.464,4.464,0,0,1,.458,1.494,4.329,4.329,0,0,1-4.8,4.8,4.459,4.459,0,0,1-1.494-.458l-6.713-3.357a14.26,14.26,0,0,0-6.378-1.506H27.494a14.26,14.26,0,0,0-6.378,1.506L14.4,125.664a4.464,4.464,0,0,1-1.494.458,4.329,4.329,0,0,1-4.8-4.8,4.459,4.459,0,0,1,.458-1.494l3.357-6.713a14.259,14.259,0,0,0,1.506-6.378V81.387a14.26,14.26,0,0,0-1.506-6.378L8.541,68.239A4.327,4.327,0,0,1,8.084,66.3h0a4.327,4.327,0,0,1,4.8-4.3,4.477,4.477,0,0,1,1.52.462l6.709,3.354a14.26,14.26,0,0,0,6.378,1.506H70.672A14.257,14.257,0,0,0,77.05,65.82l6.71-3.355A4.472,4.472,0,0,1,85.279,62a4.327,4.327,0,0,1,4.8,4.3h0a4.324,4.324,0,0,1-.457,1.935Z" transform="translate(-6.747 -6.747)" fill="#7aed22"/>
    <path id="Path_135" data-name="Path 135" d="M133.365,148.042c0,11.814-13.568,21.391-30.3,21.391s-30.3-9.577-30.3-21.391,13.568-21.391,30.3-21.391S133.365,136.228,133.365,148.042Z" transform="translate(-60.726 -60.725)" fill="#7aed22"/>
    <path id="Path_136" data-name="Path 136" d="M30.3,60.578a1.337,1.337,0,0,1,1.337-1.337H63.925A12.988,12.988,0,0,0,69.7,57.877l6.71-3.355a5.8,5.8,0,0,1,1.975-.6,5.664,5.664,0,0,1,5.685,8.163L80.689,68.86a12.99,12.99,0,0,0-1.364,5.78V92.664a1.337,1.337,0,0,1-2.674,0V74.64A15.674,15.674,0,0,1,78.3,67.665l3.385-6.771a2.989,2.989,0,0,0-.677-3.561,2.97,2.97,0,0,0-2.332-.747,3.139,3.139,0,0,0-1.064.328L70.9,60.269a15.673,15.673,0,0,1-6.975,1.646H31.64A1.337,1.337,0,0,1,30.3,60.578Zm53.741,51.908-3.357-6.713a12.99,12.99,0,0,1-1.364-5.78V98.012a1.337,1.337,0,1,0-2.674,0v1.981a15.674,15.674,0,0,0,1.647,6.975l3.357,6.713a3.127,3.127,0,0,1,.325,1.044,2.992,2.992,0,0,1-3.32,3.32,3.128,3.128,0,0,1-1.045-.325L70.9,114.365a15.674,15.674,0,0,0-6.975-1.647H20.746a15.674,15.674,0,0,0-6.975,1.647l-6.713,3.357a3.13,3.13,0,0,1-1.044.325,2.992,2.992,0,0,1-3.32-3.32,3.129,3.129,0,0,1,.325-1.044l3.357-6.713a15.676,15.676,0,0,0,1.647-6.976V74.64a15.674,15.674,0,0,0-1.647-6.975L2.99,60.893a2.989,2.989,0,0,1,.677-3.561A2.972,2.972,0,0,1,6,56.585a3.137,3.137,0,0,1,1.064.329l6.709,3.354a15.675,15.675,0,0,0,6.975,1.647h5.546a1.337,1.337,0,1,0,0-2.674H20.747a12.991,12.991,0,0,1-5.78-1.364L8.258,54.522a5.8,5.8,0,0,0-1.976-.6A5.664,5.664,0,0,0,.6,62.089L3.983,68.86a12.989,12.989,0,0,1,1.364,5.78V99.994a12.989,12.989,0,0,1-1.364,5.78L.627,112.486a5.786,5.786,0,0,0-.591,1.943A5.666,5.666,0,0,0,6.311,120.7a5.783,5.783,0,0,0,1.943-.591l6.713-3.357a12.99,12.99,0,0,1,5.78-1.364H63.925a12.991,12.991,0,0,1,5.78,1.364l6.713,3.357a5.622,5.622,0,0,0,2.589.627,5.665,5.665,0,0,0,5.629-6.311A5.779,5.779,0,0,0,84.045,112.486ZM28.021,86.479l.837.837-.837.837a1.337,1.337,0,1,0,1.891,1.891l.837-.837.837.837a1.337,1.337,0,0,0,1.891-1.891l-.837-.837.837-.837a1.337,1.337,0,0,0-1.891-1.891l-.837.837-.837-.837a1.337,1.337,0,0,0-1.891,1.891ZM56.65,84.589a1.337,1.337,0,0,0-1.891,0l-.837.837-.837-.837a1.337,1.337,0,0,0-1.891,1.891l.837.837-.837.837a1.337,1.337,0,1,0,1.891,1.891l.837-.837.837.837a1.337,1.337,0,0,0,1.891-1.891l-.837-.837.837-.837A1.337,1.337,0,0,0,56.65,84.589ZM21.89,70.328a1.337,1.337,0,0,0-1.891,0l-.837.837-.837-.837a1.337,1.337,0,0,0-1.891,1.891l.837.837-.837.837a1.337,1.337,0,1,0,1.891,1.891l.837-.837.837.837a1.337,1.337,0,1,0,1.891-1.891l-.837-.837.837-.837A1.337,1.337,0,0,0,21.89,70.328Zm23.173,0a1.337,1.337,0,0,0-1.891,0l-.837.837-.837-.837a1.337,1.337,0,0,0-1.891,1.891l.837.837-.837.837A1.337,1.337,0,1,0,41.5,75.784l.837-.837.837.837a1.337,1.337,0,1,0,1.891-1.891l-.837-.837.837-.837A1.337,1.337,0,0,0,45.064,70.328Zm23.173,0a1.337,1.337,0,0,0-1.891,0l-.837.837-.837-.837a1.337,1.337,0,0,0-1.891,1.891l.837.837-.837.837a1.337,1.337,0,1,0,1.891,1.891l.837-.837.837.837a1.337,1.337,0,0,0,1.891-1.891l-.837-.837.837-.837A1.337,1.337,0,0,0,68.237,70.328ZM21.89,98.849a1.337,1.337,0,0,0-1.891,0l-.837.837-.837-.837a1.337,1.337,0,0,0-1.891,1.891l.837.837-.837.837a1.337,1.337,0,1,0,1.891,1.891l.837-.837.837.837a1.337,1.337,0,0,0,1.891-1.891l-.837-.837.837-.837A1.337,1.337,0,0,0,21.89,98.849Zm23.173,0a1.337,1.337,0,0,0-1.891,0l-.837.837-.837-.837a1.337,1.337,0,0,0-1.891,1.891l.837.837-.837.837a1.337,1.337,0,1,0,1.891,1.891l.837-.837.837.837a1.337,1.337,0,0,0,1.891-1.891l-.837-.837.837-.837A1.337,1.337,0,0,0,45.064,98.849Zm23.173,0a1.337,1.337,0,0,0-1.891,0l-.837.837-.837-.837a1.337,1.337,0,0,0-1.891,1.891l.837.837-.837.837a1.337,1.337,0,1,0,1.891,1.891l.837-.837.837.837a1.337,1.337,0,1,0,1.891-1.891l-.837-.837.837-.837A1.337,1.337,0,0,0,68.237,98.849Z" transform="translate(0 0)" fill="#4ea010"/>
  </g>
</svg>
