<svg xmlns="http://www.w3.org/2000/svg" width="74.646" height="74.646" viewBox="0 0 74.646 74.646">
  <g id="polish" transform="translate(0 0)">
    <path id="Path_152" data-name="Path 152" d="M34.193,42.622a21.661,21.661,0,1,1,8.429-8.429" transform="translate(-0.796 -0.796)" fill="#7aed22"/>
    <path id="Path_167" data-name="Path 167" d="M12.04,0A12.04,12.04,0,1,1,0,12.04,12.04,12.04,0,0,1,12.04,0Z" transform="translate(9.632 9.632)" fill="#7aed22"/>
    <path id="Path_153" data-name="Path 153" d="M0,0H11.918V35.756H0Z" transform="translate(13.239 21.673) rotate(-45)" fill="#7aed22"/>
    <path id="Path_154" data-name="Path 154" d="M38.816,34,55.671,50.856l-4.816,4.816L34,38.816" transform="translate(5.731 5.731)" fill="#7aed22"/>
    <g id="Group_115" data-name="Group 115" transform="translate(1.204 1.204)">
      <path id="Path_155" data-name="Path 155" d="M52,8.02a6.021,6.021,0,0,1,6.02,6.02,6.021,6.021,0,0,1,6.02-6.02A6.021,6.021,0,0,1,58.02,2,6.021,6.021,0,0,1,52,8.02Z" transform="translate(8.199 -2)" fill="#7aed22"/>
      <path id="Path_156" data-name="Path 156" d="M44,28.02a6.021,6.021,0,0,1,6.02,6.02,6.021,6.021,0,0,1,6.02-6.02A6.021,6.021,0,0,1,50.02,22,6.021,6.021,0,0,1,44,28.02Z" transform="translate(6.567 2.079)" fill="#7aed22"/>
      <path id="Path_157" data-name="Path 157" d="M2,46.02a6.021,6.021,0,0,1,6.02,6.02,6.021,6.021,0,0,1,6.02-6.02A6.021,6.021,0,0,1,8.02,40,6.021,6.021,0,0,1,2,46.02Z" transform="translate(-2 5.751)" fill="#7aed22"/>
    </g>
    <path id="Path_158" data-name="Path 158" d="M9.611,27.58A13.248,13.248,0,0,1,27.557,9.6l-1.15,2.117a10.839,10.839,0,0,0-14.682,14.71Z" transform="translate(0.428 0.428)" fill="#4ea010"/>
    <path id="Path_159" data-name="Path 159" d="M37.487,47.119a1.2,1.2,0,0,1-.851-.353L11.353,21.483a1.2,1.2,0,0,1,0-1.7l8.428-8.428a1.2,1.2,0,0,1,1.7,0L46.766,36.636a1.2,1.2,0,0,1,0,1.7l-8.428,8.428A1.2,1.2,0,0,1,37.487,47.119ZM13.906,20.632,37.487,44.213l6.725-6.725L20.632,13.906Z" transform="translate(1.04 1.04)" fill="#4ea010"/>
    <path id="Path_160" data-name="Path 160" d="M51,57.02a1.2,1.2,0,0,1-.851-.353L33.293,39.811l1.7-1.7,16,16L54.113,51l-16-16,1.7-1.7L56.667,50.149a1.2,1.2,0,0,1,0,1.7l-4.816,4.816A1.2,1.2,0,0,1,51,57.02Z" transform="translate(5.587 5.587)" fill="#4ea010"/>
    <path id="Path_161" data-name="Path 161" d="M69.189,65.8H42.1a7.231,7.231,0,0,1-7.224-7.224,4.821,4.821,0,0,0-4.816-4.816H12V51.348H30.06a7.231,7.231,0,0,1,7.224,7.224A4.821,4.821,0,0,0,42.1,63.388H69.189a1.806,1.806,0,1,0,0-3.612,8.411,8.411,0,0,1-5.99-2.481L56.9,51l1.7-1.7,6.3,6.3a6.021,6.021,0,0,0,4.287,1.776,4.214,4.214,0,0,1,0,8.428Z" transform="translate(1.244 8.85)" fill="#4ea010"/>
    <path id="Path_162" data-name="Path 162" d="M20.642,38.1a8.411,8.411,0,0,1-5.99-2.481l-6.3-6.3a1.2,1.2,0,0,1,0-1.7l6.02-6.02,1.7,1.7-5.169,5.169,5.448,5.448a6.063,6.063,0,0,0,8.575,0l8.988-8.988a6.063,6.063,0,0,0,0-8.573l-5.448-5.448L23.3,16.075l-1.7-1.7,6.02-6.02a1.2,1.2,0,0,1,1.7,0l6.3,6.3a8.47,8.47,0,0,1,0,11.98L26.63,35.619A8.41,8.41,0,0,1,20.642,38.1Z" transform="translate(0.428 0.428)" fill="#4ea010"/>
    <path id="Path_163" data-name="Path 163" d="M23.875,46.751a22.863,22.863,0,1,1,20-11.768l-2.1-1.171a20.457,20.457,0,1,0-7.962,7.962l1.171,2.1a22.9,22.9,0,0,1-11.108,2.873Z" transform="translate(-1 -1)" fill="#4ea010"/>
    <path id="Path_164" data-name="Path 164" d="M58.224,15.448a1.2,1.2,0,0,1-1.2-1.2A4.821,4.821,0,0,0,52.2,9.428a1.2,1.2,0,1,1,0-2.408A4.821,4.821,0,0,0,57.02,2.2a1.2,1.2,0,1,1,2.408,0A4.821,4.821,0,0,0,64.244,7.02a1.2,1.2,0,1,1,0,2.408,4.821,4.821,0,0,0-4.816,4.816A1.2,1.2,0,0,1,58.224,15.448ZM56.193,8.224a7.283,7.283,0,0,1,2.031,2.031,7.282,7.282,0,0,1,2.031-2.031,7.282,7.282,0,0,1-2.031-2.031A7.283,7.283,0,0,1,56.193,8.224Z" transform="translate(9.199 -1)" fill="#4ea010"/>
    <path id="Path_165" data-name="Path 165" d="M50.224,35.448a1.2,1.2,0,0,1-1.2-1.2A4.821,4.821,0,0,0,44.2,29.428a1.2,1.2,0,1,1,0-2.408A4.821,4.821,0,0,0,49.02,22.2a1.2,1.2,0,1,1,2.408,0,4.821,4.821,0,0,0,4.816,4.816,1.2,1.2,0,1,1,0,2.408,4.821,4.821,0,0,0-4.816,4.816A1.2,1.2,0,0,1,50.224,35.448Zm-2.031-7.224a7.3,7.3,0,0,1,2.031,2.031,7.3,7.3,0,0,1,2.031-2.031,7.3,7.3,0,0,1-2.031-2.031A7.282,7.282,0,0,1,48.193,28.224Z" transform="translate(7.567 3.079)" fill="#4ea010"/>
    <path id="Path_166" data-name="Path 166" d="M8.224,53.448a1.2,1.2,0,0,1-1.2-1.2A4.821,4.821,0,0,0,2.2,47.428a1.2,1.2,0,0,1,0-2.408A4.821,4.821,0,0,0,7.02,40.2a1.2,1.2,0,1,1,2.408,0,4.821,4.821,0,0,0,4.816,4.816,1.2,1.2,0,0,1,0,2.408,4.821,4.821,0,0,0-4.816,4.816A1.2,1.2,0,0,1,8.224,53.448ZM6.193,46.224a7.282,7.282,0,0,1,2.031,2.031,7.282,7.282,0,0,1,2.031-2.031,7.282,7.282,0,0,1-2.031-2.031A7.283,7.283,0,0,1,6.193,46.224Z" transform="translate(-1 7.955)" fill="#4ea010"/>
  </g>
</svg>
