<svg xmlns="http://www.w3.org/2000/svg" width="65.807" height="67.366" viewBox="0 0 65.807 67.366">
  <g id="seat" transform="translate(0 0)">
    <path id="Path_192" data-name="Path 192" d="M167.8,460.584H130.419v-6.649H171.95v2.5A4.152,4.152,0,0,1,167.8,460.584Z" transform="translate(-114.039 -394.209)" fill="#e2effa"/>
    <path id="Path_193" data-name="Path 193" d="M398.861,453.935v6.649h2.058a4.153,4.153,0,0,0,4.153-4.152v-2.5Z" transform="translate(-347.16 -394.209)" fill="#caddea"/>
    <path id="Path_194" data-name="Path 194" d="M16.79,24.083l2.915-.594A7.418,7.418,0,0,0,25.269,13.9h0a10.125,10.125,0,0,0-9.195-6.367h0a2.565,2.565,0,0,0-2.556,3.12Z" transform="translate(-12.465 -6.541)" fill="#57a4ff"/>
    <path id="Path_195" data-name="Path 195" d="M28.659,13.9h0a10.126,10.126,0,0,0-9.2-6.367h0a2.552,2.552,0,0,0-2.1,1.027,10.121,10.121,0,0,1,4.957,5.34l2.9,8.805A7.42,7.42,0,0,0,28.659,13.9Z" transform="translate(-15.854 -6.541)" fill="#57a4ff"/>
    <path id="Path_196" data-name="Path 196" d="M57.224,145.032l-10.414,2.313-9.528-42.806a3,3,0,0,1,2.986-3.644l2.841.058a7.536,7.536,0,0,1,6.844,4.739l1.054,2.638a63.593,63.593,0,0,1,4.3,18.113Z" transform="translate(-33.092 -87.619)" fill="#57a4ff"/>
    <path id="Path_197" data-name="Path 197" d="M54.5,105.693l1.054,2.638a63.593,63.593,0,0,1,4.3,18.113l2.093,19.914,5.969-1.325L66,126.445a63.594,63.594,0,0,0-4.3-18.113l-1.054-2.638a7.537,7.537,0,0,0-6.844-4.739l-2.841-.058a2.974,2.974,0,0,0-1.437.333A7.536,7.536,0,0,1,54.5,105.693Z" transform="translate(-43.788 -87.62)" fill="#57a4ff"/>
    <path id="Path_198" data-name="Path 198" d="M147.22,358.44l-37.507,4.923a4.469,4.469,0,0,0-3.7,4.56h0a4.409,4.409,0,0,0,4.2,4.593H154.06a3.783,3.783,0,0,0,3.6-3.94h0C157.662,362.456,152.774,357.711,147.22,358.44Z" transform="translate(-92.845 -311.214)" fill="#57a4ff"/>
    <path id="Path_199" data-name="Path 199" d="M402.693,358.44l-2.5.328a10.125,10.125,0,0,1,6.73,9.807h0a3.783,3.783,0,0,1-3.6,3.941h6.211a3.783,3.783,0,0,0,3.6-3.941h0C413.135,362.456,408.247,357.711,402.693,358.44Z" transform="translate(-348.319 -311.214)" fill="#57a4ff"/>
    <path id="Path_200" data-name="Path 200" d="M97.293,392.448h7.977l-3.113-13.385a4.584,4.584,0,0,0-5.472-3.476h0a4.584,4.584,0,0,0-3.476,5.47l2.427,10.084A1.706,1.706,0,0,0,97.293,392.448Z" transform="translate(-81.627 -326.073)" fill="#d4e1f4"/>
    <path id="Path_201" data-name="Path 201" d="M111.813,379.063a4.584,4.584,0,0,0-5.472-3.476h0a4.563,4.563,0,0,0-2.124,1.118,4.563,4.563,0,0,1,1.352,2.358l3.113,13.385h6.244Z" transform="translate(-91.284 -326.073)" fill="#d4e1f4"/>
    <path id="Path_202" data-name="Path 202" d="M67.9,48.649a9.685,9.685,0,0,0-7.729-2.407L30.3,50.163,29.124,38.731a64.541,64.541,0,0,0-4.368-18.387L23.7,17.705a8.512,8.512,0,0,0-4.352-4.584,8.371,8.371,0,0,0,.319-6.073c-.006-.019-.013-.039-.021-.057A11.1,11.1,0,0,0,9.553,0,3.556,3.556,0,0,0,6.009,4.326l0,.02,3.272,13.43c0,.007.005.014.007.021l6.633,29.8a.991.991,0,0,0,1.935-.431L11.079,16.7a2,2,0,0,1,2-2.438l2.841.058a6.557,6.557,0,0,1,1.7.261c.027.009.054.018.081.025a6.533,6.533,0,0,1,4.16,3.83l1.054,2.638A62.56,62.56,0,0,1,27.15,38.91v.016l1.185,11.494-1.882.247A5.574,5.574,0,0,0,16.536,55.2l0,.017L18.966,65.3a2.689,2.689,0,0,0,2.622,2.066H59.682a5.148,5.148,0,0,0,5.142-5.074h2.314A4.777,4.777,0,0,0,71.73,57.36,11.538,11.538,0,0,0,67.9,48.649ZM17.452,12.506a8.566,8.566,0,0,0-1.494-.163l-2.841-.058a3.957,3.957,0,0,0-2.857,1.123L7.942,3.888a1.574,1.574,0,0,1,1.57-1.906A9.119,9.119,0,0,1,17.8,7.7,6.4,6.4,0,0,1,17.452,12.506Zm4.136,52.878a.712.712,0,0,1-.695-.547L18.469,54.761a3.593,3.593,0,0,1,7.018-1.547l2.83,12.169ZM67.137,60.31H55.96a.991.991,0,1,0,0,1.982h6.881a3.165,3.165,0,0,1-3.16,3.091H30.352l-.719-3.091H51.349a.991.991,0,1,0,0-1.982H29.172l-1.753-7.536c-.017-.076-.036-.151-.056-.226l33.063-4.34a7.726,7.726,0,0,1,6.163,1.931,9.559,9.559,0,0,1,3.159,7.221A2.8,2.8,0,0,1,67.137,60.31Z" transform="translate(-5.923 0)" fill="#004fac"/>
  </g>
</svg>
