<svg xmlns="http://www.w3.org/2000/svg" width="99.555" height="56.2" viewBox="0 0 99.555 56.2">
  <g id="sofa" transform="translate(-1 -15)">
    <path id="Path_12" data-name="Path 12" d="M18.423,34H69.806a6.423,6.423,0,0,1,6.423,6.423v11.24H12V40.423A6.423,6.423,0,0,1,18.423,34Z" transform="translate(6.663 11.509)" fill="#7aed22"/>
    <path id="Path_13" data-name="Path 13" d="M18.634,16H73.229a9.634,9.634,0,0,1,9.634,9.634V44.9H9V25.634A9.634,9.634,0,0,1,18.634,16Z" transform="translate(4.846 0.606)" fill="#7aed22"/>
    <path id="Path_14" data-name="Path 14" d="M18.057,31.423V57.115H2V31.423A6.423,6.423,0,0,1,8.423,25h3.211a5.872,5.872,0,0,1,1.606.209,6.41,6.41,0,0,1,4.817,6.214Z" transform="translate(0.606 6.057)" fill="#7aed22"/>
    <path id="Path_15" data-name="Path 15" d="M68.057,31.423V57.115H52V31.423a6.41,6.41,0,0,1,4.817-6.214A5.872,5.872,0,0,1,58.423,25h3.211a6.423,6.423,0,0,1,6.423,6.423Z" transform="translate(30.892 6.057)" fill="#7aed22"/>
    <g id="Group_6" data-name="Group 6" transform="translate(1 15)">
      <path id="Path_16" data-name="Path 16" d="M92.526,29.452H89.315V26.24A11.253,11.253,0,0,0,78.075,15H23.48A11.253,11.253,0,0,0,12.24,26.24v3.211H9.029A8.029,8.029,0,0,0,1,37.48V63.172a1.606,1.606,0,0,0,1.606,1.606H5.817v4.817A1.606,1.606,0,0,0,7.423,71.2H12.24A1.606,1.606,0,0,0,13.8,69.98l1.3-5.2H86.457l1.3,5.2a1.606,1.606,0,0,0,1.558,1.22h4.817a1.606,1.606,0,0,0,1.606-1.606V64.778h3.211a1.606,1.606,0,0,0,1.606-1.606V37.48a8.029,8.029,0,0,0-8.029-8.029ZM15.452,26.24a8.029,8.029,0,0,1,8.029-8.029H78.075A8.029,8.029,0,0,1,86.1,26.24v3.87a8.075,8.075,0,0,0-4.817,7.37V43.9H20.269V37.48a8.075,8.075,0,0,0-4.817-7.37ZM4.211,37.48a4.832,4.832,0,0,1,4.817-4.817H12.24a4.835,4.835,0,0,1,4.817,4.817V61.566H4.211Zm6.776,30.509H9.029V64.778H11.79Zm9.281-16.057a4.832,4.832,0,0,1,4.817-4.817H76.469a4.832,4.832,0,0,1,4.817,4.817v9.634H20.269ZM92.526,67.989H90.567l-.8-3.211h2.762Zm4.817-6.423H84.5V37.48a4.835,4.835,0,0,1,4.817-4.817h3.211a4.832,4.832,0,0,1,4.817,4.817Z" transform="translate(-1 -15)" fill="#4ea010"/>
      <path id="Path_17" data-name="Path 17" d="M18.606,29.029h3.211V32.24a1.606,1.606,0,1,0,3.211,0V29.029H28.24a1.606,1.606,0,0,0,0-3.211H25.029V22.606a1.606,1.606,0,1,0-3.211,0v3.211H18.606a1.606,1.606,0,1,0,0,3.211Z" transform="translate(8.692 -11.366)" fill="#4ea010"/>
      <path id="Path_18" data-name="Path 18" d="M40.606,29.029h3.211V32.24a1.606,1.606,0,1,0,3.211,0V29.029H50.24a1.606,1.606,0,0,0,0-3.211H47.029V22.606a1.606,1.606,0,1,0-3.211,0v3.211H40.606a1.606,1.606,0,0,0,0,3.211Z" transform="translate(22.018 -11.366)" fill="#4ea010"/>
      <path id="Path_19" data-name="Path 19" d="M27.606,27.211h1.606a1.606,1.606,0,0,0,0-3.211H27.606a1.606,1.606,0,1,0,0,3.211Z" transform="translate(14.143 -9.548)" fill="#4ea010"/>
      <path id="Path_20" data-name="Path 20" d="M54.057,40H39.606a1.606,1.606,0,1,0,0,3.211H54.057a1.606,1.606,0,0,0,0-3.211Z" transform="translate(21.412 0.143)" fill="#4ea010"/>
    </g>
  </g>
</svg>
