<svg xmlns="http://www.w3.org/2000/svg" width="62.926" height="88.923" viewBox="0 0 62.926 88.923">
  <g id="sprayer" transform="translate(0 0)">
    <rect id="Rectangle_47" data-name="Rectangle 47" width="21.975" height="6.621" transform="translate(11.011 19.862)" fill="#57a4ff"/>
    <rect id="Rectangle_48" data-name="Rectangle 48" width="4.947" height="6.621" transform="translate(28.038 19.862)" fill="#57a4ff"/>
    <path id="Path_180" data-name="Path 180" d="M117.388,156.426h-6.674v-3.939H95.4v3.939H88.722a6.359,6.359,0,0,0-6.346,6.762l1.614,25.405a6.359,6.359,0,0,0,6.346,5.956h25.438a6.359,6.359,0,0,0,6.346-5.956l1.614-25.405A6.359,6.359,0,0,0,117.388,156.426Z" transform="translate(-81.057 -126.003)" fill="#57a4ff"/>
    <path id="Path_181" data-name="Path 181" d="M258.68,175.164h-4.186c2.6,0,4.658,3.1,4.493,6.762l-1.143,25.405c-.151,3.349-2.117,5.956-4.493,5.956h3.714a6.359,6.359,0,0,0,6.346-5.956l1.614-25.405A6.359,6.359,0,0,0,258.68,175.164Z" transform="translate(-222.348 -144.742)" fill="#57a4ff"/>
    <rect id="Rectangle_49" data-name="Rectangle 49" width="9.689" height="5.808" transform="translate(17.154 68.546)" fill="#57a4ff"/>
    <rect id="SVGCleanerId_0" width="4.845" height="5.808" transform="translate(21.998 68.546)" fill="#e0c48c"/>
    <g id="Group_118" data-name="Group 118" transform="translate(21.998 68.546)">
      <rect id="SVGCleanerId_0_1_" width="4.845" height="5.808" fill="#57a4ff"/>
    </g>
    <path id="Path_183" data-name="Path 183" d="M0,0H5.45V18.86H0Z" transform="translate(47.276 52.494)" fill="#004fac"/>
    <path id="Path_182" data-name="Path 182" d="M136.465,62.695a2.327,2.327,0,0,1-1.744-.761c-2.036-2.064-2.412-7.5-2.386-9.42a1.3,1.3,0,0,0-1.3-1.325H126.15V4.841l2.613-2.613A1.305,1.305,0,1,0,126.917.382l-3,3a1.3,1.3,0,0,0-.382.923V51.188h-1.42a1.305,1.305,0,0,0-1.305,1.305v18.86a1.305,1.305,0,0,0,1.305,1.305h1.42v5.929a7.734,7.734,0,0,1-7.725,7.725H88.165a2.072,2.072,0,1,1,0-4.144H93.3a4.858,4.858,0,0,0,4.852-4.852V75.659h3.54a1.305,1.305,0,0,0,0-2.61H93.3v-3.2h16.259c.211,0,.419-.011.625-.027v1.626a1.305,1.305,0,1,0,2.61,0V69.13a7.679,7.679,0,0,0,4.413-6.458l1.02-16.05a1.305,1.305,0,1,0-2.605-.166l-1.02,16.05a5.064,5.064,0,0,1-5.044,4.733H84.123a5.064,5.064,0,0,1-5.044-4.733L77.465,37.1a5.054,5.054,0,0,1,5.044-5.374h6.674a1.305,1.305,0,0,0,1.305-1.305V27.788H103.2v2.633a1.305,1.305,0,0,0,1.305,1.305h6.674a5.054,5.054,0,0,1,5.043,5.374l-.256,4.024a1.305,1.305,0,1,0,2.605.166l.256-4.024a7.671,7.671,0,0,0-6.028-7.979V26.562a1.305,1.305,0,0,0-2.61,0v2.554h-4.379V27.788h2.023a1.305,1.305,0,0,0,1.305-1.305V19.861a1.305,1.305,0,0,0-1.305-1.305H85.855a1.305,1.305,0,0,0-1.305,1.305v6.622a1.305,1.305,0,0,0,1.305,1.305h2.023v1.328H83.5V26.562a1.305,1.305,0,1,0-2.61,0v2.725a7.671,7.671,0,0,0-6.027,7.979l1.614,25.405a7.679,7.679,0,0,0,4.412,6.458v2.319a1.305,1.305,0,1,0,2.61,0V69.823c.207.017.415.027.626.027h6.569v4.5A1.305,1.305,0,0,0,92,75.659h3.54v1.658a2.244,2.244,0,0,1-2.242,2.242h-5.13a4.682,4.682,0,1,0,0,9.364h27.65A10.347,10.347,0,0,0,126.15,78.588V72.659h1.42a1.305,1.305,0,0,0,1.305-1.305V53.8h.881c.037.775.116,1.824.287,2.971.481,3.231,1.429,5.584,2.818,6.994a4.909,4.909,0,0,0,3.6,1.541,1.305,1.305,0,1,0,0-2.61ZM87.16,21.166h19.364v4.012H101.9V23.172a1.305,1.305,0,1,0-2.61,0v2.006H94.4V23.172a1.305,1.305,0,1,0-2.61,0v2.006H87.16V21.166Zm39.1,48.882h-2.84V53.8h2.84Z" transform="translate(-74.844 0.001)" fill="#004fac"/>
  </g>
</svg>
