<svg xmlns="http://www.w3.org/2000/svg" width="70.857" height="70.857" viewBox="0 0 70.857 70.857">
  <g id="steering-wheel" transform="translate(0 0)">
    <g id="Group_119" data-name="Group 119" transform="translate(1.384 1.384)">
      <path id="Path_203" data-name="Path 203" d="M44.045,16.92A27.125,27.125,0,1,1,16.92,44.045,27.125,27.125,0,0,1,44.045,16.92ZM78.089,44.045A34.045,34.045,0,1,0,44.045,78.089,34.045,34.045,0,0,0,78.089,44.045Z" transform="translate(-10 -10)" fill="#7aed22" fill-rule="evenodd"/>
      <circle id="Ellipse_24" data-name="Ellipse 24" cx="5.536" cy="5.536" r="5.536" transform="translate(26.825 37.046) rotate(-67.486)" fill="#7aed22"/>
      <path id="Path_204" data-name="Path 204" d="M124.671,183.526a5.536,5.536,0,1,1,5.536,5.536A5.536,5.536,0,0,1,124.671,183.526Zm5.536-11.641a118.865,118.865,0,0,0-17.344,1.271,20.26,20.26,0,0,0-2.342,14.942,21.081,21.081,0,0,1,13.224,14.578,20.356,20.356,0,0,0,12.924,0A21.081,21.081,0,0,1,149.892,188.1a20.26,20.26,0,0,0-2.342-14.942A118.865,118.865,0,0,0,130.206,171.885Z" transform="translate(-96.162 -149.481)" fill="#fff" fill-rule="evenodd"/>
      <path id="Path_205" data-name="Path 205" d="M391.1,191.44a27.091,27.091,0,0,0-1.474-8.842h0q-4.112-.909-8.306-1.528a20.26,20.26,0,0,1,2.342,14.942,21,21,0,0,1,7.163-1.251h.075a27.431,27.431,0,0,0,.2-3.323Z" transform="translate(-329.934 -157.395)" fill="#7aed22" fill-rule="evenodd"/>
      <path id="Path_206" data-name="Path 206" d="M222.231,394.373a20.356,20.356,0,0,1-12.924,0,21.079,21.079,0,0,1,.649,5.207q0,1.073-.106,2.119v0a27.371,27.371,0,0,0,11.837,0v0q-.1-1.045-.106-2.118A21.08,21.08,0,0,1,222.231,394.373Z" transform="translate(-181.724 -341.178)" fill="#7aed22" fill-rule="evenodd"/>
      <path id="Path_207" data-name="Path 207" d="M67.439,196.012a20.26,20.26,0,0,1,2.342-14.942q-4.191.618-8.306,1.528h0A27.09,27.09,0,0,0,60,191.44a27.382,27.382,0,0,0,.2,3.332l.074-.011A21,21,0,0,1,67.439,196.012Z" transform="translate(-53.08 -157.395)" fill="#7aed22" fill-rule="evenodd"/>
    </g>
    <path id="Path_208" data-name="Path 208" d="M60.481,10.377a35.431,35.431,0,0,0-45.1-4.16A1.384,1.384,0,0,0,16.948,8.5,32.658,32.658,0,1,1,8.5,16.949a1.384,1.384,0,0,0-2.281-1.568,35.429,35.429,0,0,0,54.264,45.1,35.429,35.429,0,0,0,0-50.1Z" transform="translate(0 0)" fill="#4ea010"/>
    <path id="Path_209" data-name="Path 209" d="M78.509,107.018a28.51,28.51,0,0,0,26.939-37.84c0-.008-.005-.016-.008-.023a28.509,28.509,0,1,0-26.931,37.863ZM104.25,78.509q0,.993-.075,1.969a22.32,22.32,0,0,0-4.236.632,21.894,21.894,0,0,0-1.619-11.173q2.394.409,4.767.916A25.653,25.653,0,0,1,104.25,78.509Zm-9.261-9.093a19.02,19.02,0,0,1,2,12.65,22.525,22.525,0,0,0-13.152,14.5,18.972,18.972,0,0,1-10.664,0,22.524,22.524,0,0,0-13.152-14.5,19.023,19.023,0,0,1,2-12.65,117.214,117.214,0,0,1,32.961,0ZM57.079,81.11a22.329,22.329,0,0,0-4.236-.632q-.074-.975-.075-1.969a25.653,25.653,0,0,1,1.162-7.656q2.373-.507,4.767-.916A21.9,21.9,0,0,0,57.079,81.11Zm-3.866,2.166a19.678,19.678,0,0,1,18.1,19.591c0,.119,0,.238,0,.357A25.825,25.825,0,0,1,53.212,83.275Zm20.845,20.588c.015-.333.023-.666.023-1a22.5,22.5,0,0,0-.24-3.276,21.781,21.781,0,0,0,9.337,0,22.5,22.5,0,0,0-.24,3.276c0,.331.009.665.023,1a25.844,25.844,0,0,1-8.9,0Zm11.653-.64c0-.119,0-.239,0-.357a19.678,19.678,0,0,1,18.1-19.591A25.826,25.826,0,0,1,85.71,103.224Zm-7.2-50.456a25.775,25.775,0,0,1,23.4,15.016,120.167,120.167,0,0,0-46.8,0A25.775,25.775,0,0,1,78.509,52.768Z" transform="translate(-43.08 -43.08)" fill="#4ea010"/>
    <path id="Path_210" data-name="Path 210" d="M206,212.92a6.92,6.92,0,1,0,6.92-6.92A6.927,6.927,0,0,0,206,212.92Zm6.92-4.152a4.152,4.152,0,1,1-4.152,4.152A4.156,4.156,0,0,1,212.92,208.768Z" transform="translate(-177.491 -177.491)" fill="#4ea010"/>
    <path id="Path_211" data-name="Path 211" d="M73.432,74.819a1.384,1.384,0,1,0-.978-2.363h0a1.384,1.384,0,0,0,.979,2.362Z" transform="translate(-62.077 -62.08)" fill="#4ea010"/>
  </g>
</svg>
