<svg id="vacuum-cleaner" xmlns="http://www.w3.org/2000/svg" width="80.426" height="80.425" viewBox="0 0 80.426 80.425">
  <g id="Group_32" data-name="Group 32">
    <g id="Group_31" data-name="Group 31">
      <path id="Path_51" data-name="Path 51" d="M71.345,70.048h0V64.859H68.751V14.269a14.269,14.269,0,0,0-28.538,0V37.618a1.3,1.3,0,0,1-1.3,1.3H30.238a34.311,34.311,0,0,0-6.889-1.2V33.727H11.675v3.892H9.08A9.09,9.09,0,0,0,0,46.7V63.562a6.493,6.493,0,0,0,6.486,6.486h7.25a10.367,10.367,0,0,0,19.227,0H44.1a6.493,6.493,0,0,0,6.486-6.486,24.086,24.086,0,0,0-7.539-17.407A7.79,7.79,0,0,0,48,38.915V14.269a6.486,6.486,0,0,1,12.972,0v50.59H58.373v5.189h-9.08V80.425H80.425V70.048ZM14.269,36.321h6.486v1.3H14.269Zm9.08,37.618a7.783,7.783,0,1,1,7.783-7.783A7.791,7.791,0,0,1,23.349,73.939ZM48,63.562A3.9,3.9,0,0,1,44.1,67.453H33.637a10.378,10.378,0,1,0-20.576,0H6.486a3.9,3.9,0,0,1-3.892-3.892V46.7A6.493,6.493,0,0,1,9.08,40.212H20.755C36.03,40.212,48,50.469,48,63.562ZM54.481,5.189a9.09,9.09,0,0,0-9.08,9.08V38.916a5.178,5.178,0,0,1-4.777,5.147,29.363,29.363,0,0,0-3.949-2.553h2.24a3.9,3.9,0,0,0,3.892-3.892V14.269a11.675,11.675,0,0,1,23.349,0v50.59H63.562V14.269A9.09,9.09,0,0,0,54.481,5.189Zm6.486,62.265h7.783v2.594H60.967ZM77.831,77.831H51.887V72.642H77.831v5.189Z" fill="#79e228"/>
      <rect id="Rectangle_16" data-name="Rectangle 16" width="2.594" height="2.594" transform="translate(44.104 77.831)" fill="#79e228"/>
      <rect id="Rectangle_17" data-name="Rectangle 17" width="2.594" height="2.594" transform="translate(38.915 77.831)" fill="#79e228"/>
      <rect id="Rectangle_18" data-name="Rectangle 18" width="2.594" height="2.594" transform="translate(33.727 77.831)" fill="#79e228"/>
      <rect id="Rectangle_19" data-name="Rectangle 19" width="2.594" height="2.594" transform="translate(5.189 44.104)" fill="#79e228"/>
      <rect id="Rectangle_20" data-name="Rectangle 20" width="2.594" height="2.594" transform="translate(5.189 49.293)" fill="#79e228"/>
      <path id="Path_52" data-name="Path 52" d="M70.814,220.313A5.189,5.189,0,1,0,76,225.5,5.194,5.194,0,0,0,70.814,220.313Zm0,7.783a2.594,2.594,0,1,1,2.594-2.594A2.6,2.6,0,0,1,70.814,228.1Z" transform="translate(-47.465 -159.346)" fill="#79e228"/>
    </g>
  </g>
</svg>
